<svg xmlns="http://www.w3.org/2000/svg" xmlns:xlink="http://www.w3.org/1999/xlink" width="500" zoomAndPan="magnify" viewBox="0 0 375 374.999991" height="500" preserveAspectRatio="xMidYMid meet" version="1.0"><defs><clipPath id="82eed8b587"><path d="M 0 0 L 337.5 0 L 337.5 337.5 L 0 337.5 Z M 0 0 " clip-rule="nonzero"/></clipPath><clipPath id="01ecc51c16"><path d="M 225.984375 220.085938 L 354.234375 220.085938 L 354.234375 348.335938 L 225.984375 348.335938 Z M 225.984375 220.085938 " clip-rule="nonzero"/></clipPath></defs><g clip-path="url(#82eed8b587)"><path fill="#f1f2f2" d="M 168.75 0 C 152.304688 138.96875 138.96875 152.304688 0 168.75 C 0.289062 168.785156 0.574219 168.816406 0.859375 168.851562 L 0.863281 168.855469 L 0.867188 168.851562 C 139.023438 185.253906 152.339844 198.820312 168.75 337.5 C 185.195312 198.53125 198.53125 185.195312 337.5 168.75 C 198.53125 152.304688 185.195312 138.96875 168.75 0 Z M 168.75 0 " fill-opacity="1" fill-rule="nonzero"/></g><g clip-path="url(#01ecc51c16)"><path fill="#f1f2f2" d="M 290.109375 220.085938 C 283.859375 272.894531 278.792969 277.960938 225.984375 284.210938 C 226.09375 284.222656 226.203125 284.234375 226.3125 284.25 C 278.8125 290.480469 283.871094 295.636719 290.109375 348.335938 C 296.359375 295.527344 301.425781 290.460938 354.234375 284.210938 C 301.425781 277.960938 296.359375 272.894531 290.109375 220.085938 Z M 290.109375 220.085938 " fill-opacity="1" fill-rule="nonzero"/></g></svg>